{
  "accessors": [
    {
      "bufferView": 2,
      "componentType": 5126,
      "count": 65532,
      "max": [
        1.402439832687378,
        1.3153973817825317,
        2.477147102355957
      ],
      "min": [
        -0.6590195894241333,
        -1.1483709812164307,
        -6.980023384094238
      ],
      "type": "VEC3"
    },
    {
      "bufferView": 2,
      "byteOffset": 786384,
      "componentType": 5126,
      "count": 65532,
      "max": [
        0.9999937415122986,
        0.9999946355819702,
        0.9999996423721313
      ],
      "min": [
        -0.999987781047821,
        -0.9999856948852539,
        -0.9999962449073792
      ],
      "type": "VEC3"
    },
    {
      "bufferView": 1,
      "componentType": 5126,
      "count": 65532,
      "max": [
        0.6189000010490417,
        0.9467300176620483
      ],
      "min": [
        0.0052200001664459705,
        0.0019499999471008778
      ],
      "type": "VEC2"
    },
    {
      "bufferView": 0,
      "componentType": 5125,
      "count": 327018,
      "type": "SCALAR"
    },
    {
      "bufferView": 2,
      "byteOffset": 1572768,
      "componentType": 5126,
      "count": 65532,
      "max": [
        1.4007505178451538,
        1.2864646911621094,
        0.6367115378379822
      ],
      "min": [
        -1.4035300016403198,
        -1.1517945528030396,
        -6.977123260498047
      ],
      "type": "VEC3"
    },
    {
      "bufferView": 2,
      "byteOffset": 2359152,
      "componentType": 5126,
      "count": 65532,
      "max": [
        0.9999986290931702,
        0.9999991059303284,
        0.9998029470443726
      ],
      "min": [
        -0.9999920725822449,
        -0.9999988675117493,
        -0.9999170899391174
      ],
      "type": "VEC3"
    },
    {
      "bufferView": 1,
      "byteOffset": 524256,
      "componentType": 5126,
      "count": 65532,
      "max": [
        0.8253300189971924,
        0.9480199813842773
      ],
      "min": [
        0.003800000064074993,
        0.21301999688148499
      ],
      "type": "VEC2"
    },
    {
      "bufferView": 0,
      "byteOffset": 1308072,
      "componentType": 5125,
      "count": 327825,
      "type": "SCALAR"
    },
    {
      "bufferView": 2,
      "byteOffset": 3145536,
      "componentType": 5126,
      "count": 65532,
      "max": [
        0.9362639784812927,
        1.291509747505188,
        -0.03182274103164673
      ],
      "min": [
        -1.3836168050765991,
        -1.151932716369629,
        -6.980023384094238
      ],
      "type": "VEC3"
    },
    {
      "bufferView": 2,
      "byteOffset": 3931920,
      "componentType": 5126,
      "count": 65532,
      "max": [
        0.9999883770942688,
        0.999998152256012,
        0.9997987151145935
      ],
      "min": [
        -0.9999985694885254,
        -0.9999886155128479,
        -0.9999809265136719
      ],
      "type": "VEC3"
    },
    {
      "bufferView": 1,
      "byteOffset": 1048512,
      "componentType": 5126,
      "count": 65532,
      "max": [
        0.9980400204658508,
        0.9691200256347656
      ],
      "min": [
        0.00559999980032444,
        0.27834001183509827
      ],
      "type": "VEC2"
    },
    {
      "bufferView": 0,
      "byteOffset": 2619372,
      "componentType": 5125,
      "count": 365529,
      "type": "SCALAR"
    },
    {
      "bufferView": 2,
      "byteOffset": 4718304,
      "componentType": 5126,
      "count": 65532,
      "max": [
        0.07044777274131775,
        1.3153973817825317,
        2.3086304664611816
      ],
      "min": [
        -1.4035300016403198,
        -0.9786296486854553,
        -6.788374423980713
      ],
      "type": "VEC3"
    },
    {
      "bufferView": 2,
      "byteOffset": 5504688,
      "componentType": 5126,
      "count": 65532,
      "max": [
        0.9996472001075745,
        0.9999786019325256,
        0.999932050704956
      ],
      "min": [
        -0.9999982118606567,
        -0.9999818205833435,
        -0.9999961853027344
      ],
      "type": "VEC3"
    },
    {
      "bufferView": 1,
      "byteOffset": 1572768,
      "componentType": 5126,
      "count": 65532,
      "max": [
        0.9838799834251404,
        0.9362800121307373
      ],
      "min": [
        0.495279997587204,
        0.003759999992325902
      ],
      "type": "VEC2"
    },
    {
      "bufferView": 0,
      "byteOffset": 4081488,
      "componentType": 5125,
      "count": 347022,
      "type": "SCALAR"
    },
    {
      "bufferView": 2,
      "byteOffset": 6291072,
      "componentType": 5126,
      "count": 62909,
      "max": [
        1.402439832687378,
        1.305426836013794,
        2.4767212867736816
      ],
      "min": [
        -1.3575537204742432,
        -1.1459126472473145,
        -6.978799819946289
      ],
      "type": "VEC3"
    },
    {
      "bufferView": 2,
      "byteOffset": 7045980,
      "componentType": 5126,
      "count": 62909,
      "max": [
        0.9999838471412659,
        0.9999927282333374,
        0.9999856352806091
      ],
      "min": [
        -0.9999696016311646,
        -0.9999988675117493,
        -0.9999950528144836
      ],
      "type": "VEC3"
    },
    {
      "bufferView": 1,
      "byteOffset": 2097024,
      "componentType": 5126,
      "count": 62909,
      "max": [
        0.8158000111579895,
        0.9617800116539001
      ],
      "min": [
        0.0019499999471008778,
        0.009150000289082527
      ],
      "type": "VEC2"
    },
    {
      "bufferView": 0,
      "byteOffset": 5469576,
      "componentType": 5125,
      "count": 271902,
      "type": "SCALAR"
    }
  ],
  "asset": {
    "extras": {
      "author": "Ploobert (https://sketchfab.com/Ploobert)",
      "license": "CC-BY-4.0 (http://creativecommons.org/licenses/by/4.0/)",
      "source": "https://sketchfab.com/3d-models/cyborg-ecd0c4f6220942298f4df3e9d1c2f591",
      "title": "Cyborg"
    },
    "generator": "Sketchfab-11.97.0",
    "version": "2.0"
  },
  "bufferViews": [
    {
      "buffer": 0,
      "byteLength": 6557184,
      "name": "floatBufferViews",
      "target": 34963
    },
    {
      "buffer": 0,
      "byteLength": 2600296,
      "byteOffset": 6557184,
      "byteStride": 8,
      "name": "floatBufferViews",
      "target": 34962
    },
    {
      "buffer": 0,
      "byteLength": 7800888,
      "byteOffset": 9157480,
      "byteStride": 12,
      "name": "floatBufferViews",
      "target": 34962
    }
  ],
  "buffers": [
    {
      "byteLength": 16958368,
      "uri": "scene.bin"
    }
  ],
  "extensionsUsed": [
    "KHR_materials_unlit"
  ],
  "images": [
    {
      "uri": "textures/defaultMat_baseColor.jpeg"
    }
  ],
  "materials": [
    {
      "doubleSided": true,
      "extensions": {
        "KHR_materials_unlit": {}
      },
      "name": "defaultMat",
      "pbrMetallicRoughness": {
        "baseColorTexture": {
          "index": 0
        },
        "metallicFactor": 0.0
      }
    }
  ],
  "meshes": [
    {
      "name": "Object_0",
      "primitives": [
        {
          "attributes": {
            "NORMAL": 1,
            "POSITION": 0,
            "TEXCOORD_0": 2
          },
          "indices": 3,
          "material": 0,
          "mode": 4
        }
      ]
    },
    {
      "name": "Object_1",
      "primitives": [
        {
          "attributes": {
            "NORMAL": 5,
            "POSITION": 4,
            "TEXCOORD_0": 6
          },
          "indices": 7,
          "material": 0,
          "mode": 4
        }
      ]
    },
    {
      "name": "Object_2",
      "primitives": [
        {
          "attributes": {
            "NORMAL": 9,
            "POSITION": 8,
            "TEXCOORD_0": 10
          },
          "indices": 11,
          "material": 0,
          "mode": 4
        }
      ]
    },
    {
      "name": "Object_3",
      "primitives": [
        {
          "attributes": {
            "NORMAL": 13,
            "POSITION": 12,
            "TEXCOORD_0": 14
          },
          "indices": 15,
          "material": 0,
          "mode": 4
        }
      ]
    },
    {
      "name": "Object_4",
      "primitives": [
        {
          "attributes": {
            "NORMAL": 17,
            "POSITION": 16,
            "TEXCOORD_0": 18
          },
          "indices": 19,
          "material": 0,
          "mode": 4
        }
      ]
    }
  ],
  "nodes": [
    {
      "children": [
        1
      ],
      "matrix": [
        1.0,
        0.0,
        0.0,
        0.0,
        0.0,
        2.220446049250313e-16,
        -1.0,
        0.0,
        0.0,
        1.0,
        2.220446049250313e-16,
        0.0,
        0.0,
        0.0,
        0.0,
        1.0
      ],
      "name": "Sketchfab_model"
    },
    {
      "children": [
        2,
        3,
        4,
        5,
        6
      ],
      "name": "PolySphere1_1.obj.cleaner.materialmerger.gles"
    },
    {
      "mesh": 0,
      "name": "Object_2"
    },
    {
      "mesh": 1,
      "name": "Object_3"
    },
    {
      "mesh": 2,
      "name": "Object_4"
    },
    {
      "mesh": 3,
      "name": "Object_5"
    },
    {
      "mesh": 4,
      "name": "Object_6"
    }
  ],
  "samplers": [
    {
      "magFilter": 9729,
      "minFilter": 9987,
      "wrapS": 10497,
      "wrapT": 10497
    }
  ],
  "scene": 0,
  "scenes": [
    {
      "name": "Sketchfab_Scene",
      "nodes": [
        0
      ]
    }
  ],
  "textures": [
    {
      "sampler": 0,
      "source": 0
    }
  ]
}
